<?xml version="1.0" encoding="UTF-8" standalone="no"?>
<svg
   xmlns:dc="http://purl.org/dc/elements/1.1/"
   xmlns:cc="http://creativecommons.org/ns#"
   xmlns:rdf="http://www.w3.org/1999/02/22-rdf-syntax-ns#"
   xmlns:svg="http://www.w3.org/2000/svg"
   xmlns="http://www.w3.org/2000/svg"
   xmlns:sodipodi="http://sodipodi.sourceforge.net/DTD/sodipodi-0.dtd"
   xmlns:inkscape="http://www.inkscape.org/namespaces/inkscape"
   sodipodi:docname="tractable-logo.svg"
   inkscape:version="1.0 (4035a4f, 2020-05-01)"
   version="1.1"
   id="svg27183"
   height="410"
   width="410">
  <defs
     id="defs27185" />
  <sodipodi:namedview
     inkscape:document-rotation="0"
     inkscape:window-maximized="1"
     inkscape:window-y="38"
     inkscape:window-x="0"
     inkscape:window-height="831"
     inkscape:window-width="1512"
     showgrid="false"
     inkscape:current-layer="layer1"
     inkscape:document-units="px"
     inkscape:cy="226.22919"
     inkscape:cx="469.03043"
     inkscape:zoom="0.521922"
     inkscape:pageshadow="2"
     inkscape:pageopacity="0.0"
     borderopacity="1.0"
     bordercolor="#666666"
     pagecolor="#ffffff"
     id="base" />
  <metadata
     id="metadata27188">
    <rdf:RDF>
      <cc:Work
         rdf:about="">
        <dc:format>image/svg+xml</dc:format>
        <dc:type
           rdf:resource="http://purl.org/dc/dcmitype/StillImage" />
        <dc:title></dc:title>
      </cc:Work>
    </rdf:RDF>
  </metadata>
  <g
     transform="translate(0,-642.36218)"
     id="layer1"
     inkscape:groupmode="layer"
     inkscape:label="Layer 1">
    <path
       sodipodi:nodetypes="ssssscssssssssssscsssssssssscccssssssscccsssssssscccsscsssssccccccsssssscsssscsssssscccccscsssscsscsscscssscsscsscccsssccss"
       inkscape:connector-curvature="0"
       id="path3906"
       d="m 338.76359,1011.5416 c -18.5317,-3.7765 -33.9949,-16.44859 -40.9781,-33.58131 -9.9106,-24.31535 -1.4421,-52.45437 20.2116,-67.15913 3.4426,-2.33783 10.5205,-5.84071 14.2142,-7.03468 19.8849,-6.42761 41.7961,-1.15256 56.4459,13.58919 10.7036,10.77095 16.3491,24.30041 16.3428,39.16586 0,9.3826 -1.7104,16.75867 -5.8226,25.16789 -5.002,10.22894 -14.7687,20.04398 -25.058,25.18208 -10.233,5.1099 -24.1663,6.9504 -35.3558,4.6701 z m 16.3428,-32.3265 c 9.916,-2.40015 17.2203,-11.81712 17.2203,-22.20113 0,-7.0001 -2.2395,-12.30746 -7.1466,-16.93656 -5.0641,-4.77726 -9.3782,-6.26938 -17.3387,-5.9969 -4.492,0.15377 -4.9823,0.26614 -8.3076,1.90454 -6.1804,3.04508 -11.1938,9.16068 -12.6332,15.41062 -0.6724,2.9192 -0.5846,8.34022 0.1827,11.28598 3.1569,12.12017 15.6949,19.51746 28.0231,16.53345 z m -269.8396,31.8966 c -16.8632,-2.0411 -30.7678,-7.6361 -44.3382,-17.84073 -16.128,-12.12806 -28.0514,-29.90094 -32.9605,-49.13085 -7.55900003,-29.61036 -0.5434,-59.33224 19.4874,-82.55844 13.7477,-15.9408 32.5088,-26.27819 54.7029,-30.14149 4.5801,-0.79727 21.7888,-0.80084 26.7436,-0.006 29.0602,4.66435 54.4655,23.08429 67.4171,48.88033 6.0482,12.04635 9.1068,24.16005 9.563,37.87405 0.4899,14.73021 -1.9094,26.70141 -8.0998,40.4155 -10.3433,22.91375 -29.8757,40.54043 -53.809,48.55883 -4.3037,1.4419 -10.4314,2.8131 -16.6313,3.7218 -4.922,0.7214 -16.9661,0.845 -22.0752,0.2266 z m 18.1789,-53.28508 c 13.7269,-3.00755 25.1337,-14.09068 28.4922,-27.68362 1.1352,-4.59456 1.0218,-14.4392 -0.2186,-18.98472 -3.5953,-13.17476 -15.0351,-23.90858 -28.4489,-26.69321 -9.7127,-2.01629 -20.2605,-0.10029 -27.9956,5.0853 -8.2212,5.51155 -13.3029,12.39491 -15.948,21.60265 -1.3255,4.61417 -1.4244,15.24373 -0.1833,19.71344 3.7621,13.54872 15.0482,24.18172 28.6491,26.99104 3.9651,0.81903 11.8449,0.80347 15.6531,-0.0308 z m 88.512,1.70356 c 0.9743,-1.92932 3.7543,-10.65323 4.7226,-14.82042 1.6991,-7.31188 2.3905,-14.07976 2.3905,-23.40067 0,-17.05245 -2.8712,-29.9858 -9.8999,-44.59417 -5.6666,-11.77763 -11.8888,-20.44207 -21.3238,-29.69363 -10.2397,-10.04062 -20.1412,-16.54079 -33.4595,-21.96574 -13.0199,-5.30339 -23.7905,-7.37798 -38.3045,-7.37798 -11.4001,0 -19.5109,1.07077 -29.3023,3.86837 -5.3152,1.51868 -19.0893,8.46953 -26.2199,13.23137 l -5.5684,3.71865 -6.5423,-6.55321 -6.5423,-6.55321 3.493,-2.82012 c 9.1508,-7.38788 21.7043,-14.41022 35.3626,-19.78154 l 4.2344,-1.66524 5.5088,-35.73808 c 5.8274,-37.80488 6.9146,-43.88959 9.0533,-50.66995 2.9015,-9.19891 8.5373,-18.45337 14.0415,-23.05746 5.014,-4.19407 10.5947,-6.79604 18.164,-8.4689 4.4332,-0.97976 35.4574,-1.17547 123.1658,-0.77686 l 70.5363,0.32057 v 12.42553 12.42549 h -13.3437 -13.3439 l 0.2089,1.44861 c 0.2968,2.05904 9.0954,96.34467 9.0954,97.46643 0,0.67184 0.2837,0.92782 1.0283,0.92782 1.2689,0 45.9268,7.46103 56.0247,9.36009 19.422,3.65256 26.7109,7.05136 31.4082,14.64544 1.1487,1.85707 4.25,9.35603 4.25,10.27655 0,0.27443 -4.1291,0.4907 -10.9596,0.57391 l -10.9596,0.13359 -1.075,1.25062 c -1.2428,1.44576 -1.3765,3.37603 -0.4691,6.77247 1.4862,5.56276 5.8406,12.26961 10.437,16.07554 3.9449,3.26647 8.0159,5.17226 14.8092,6.9328 3.0644,0.79415 5.6155,1.46853 5.6692,1.49862 0.2841,0.15917 6.8112,30.11005 6.8112,31.25441 0,0.37833 -1.032,-0.20847 -2.563,-1.4574 -8.4331,-6.87957 -18.8949,-11.85063 -29.9751,-14.24325 -5.4145,-1.16918 -20.8669,-1.18661 -26.2979,-0.0299 -20.78,4.42665 -37.7344,17.47446 -47.0233,36.18827 -5.0045,10.08234 -6.9828,17.902 -7.0759,27.96852 l -0.057,6.12795 h -45.3642 -45.3642 l 0.6191,-1.22575 z m 48.0025,-152.35064 c 0.5383,-0.87091 0.9057,-1.64024 0.8164,-1.70963 -1.4029,-1.09057 -8.1996,-5.62143 -8.4326,-5.62143 -0.1746,0 -1.5495,1.69586 -3.0554,3.76854 -1.5059,2.07267 -3.0479,4.07844 -3.4267,4.45727 -0.6213,0.62121 -0.012,0.68874 6.2154,0.68874 h 6.9043 z m -23.1922,1.34498 c 0,-0.13122 -0.3261,-0.73621 -0.7247,-1.34445 -0.5078,-0.77507 -0.6637,-1.73927 -0.5211,-3.22327 0.1862,-1.93767 1.0472,-3.26304 10.1408,-15.6107 6.1362,-8.33193 10.419,-13.74235 11.1965,-14.14439 0.6925,-0.3581 2.0644,-0.65112 3.0486,-0.65112 3.4447,0 6.5988,4.29101 5.4907,7.46972 -0.2517,0.72198 -2.1833,3.64493 -4.2925,6.49544 -2.1092,2.85052 -3.8298,5.33732 -3.8236,5.52622 0.01,0.18894 1.694,1.49679 3.7505,2.9064 l 3.7391,2.56293 1.3159,-2.1172 c 1.1136,-1.79156 2.3619,-2.76846 8.1162,-6.35161 3.7402,-2.32892 6.8797,-4.43904 6.9766,-4.68918 0.097,-0.2501 -1.4319,-17.44331 -3.3978,-38.20706 -1.9658,-20.7638 -3.5742,-38.16431 -3.5742,-38.6679 v -0.91556 l -55.3816,0.12155 -55.3815,0.1215 -2.5615,1.03436 c -5.8327,2.3554 -10.2316,8.65998 -11.924,17.08993 -1.1864,5.90976 -2.4662,19.58998 -5.5599,59.43223 -0.8566,11.03174 -1.642,20.80988 -1.7453,21.72919 l -0.188,1.67148 h 47.6503 c 26.2078,0 47.6505,-0.10734 47.6505,-0.23851 z"
       style="fill:#000000;fill-opacity:1" />
  </g>
</svg>
